<svg xmlns="http://www.w3.org/2000/svg"  viewBox="0 0 100 100" width="100px" height="100px"><polygon fill="#f9e65c" points="15.398,40.469 50,82 85,40.469"/><polygon fill="#f9e65c" points="29.963,20.893 16.255,40.362 28.948,40.362"/><polygon fill="#f9e65c" points="70.383,20.893 84.09,40.362 71.398,40.362"/><polygon fill="#fef6aa" points="29.518,40.386 50.081,18.384 71.015,40.766"/><polygon fill="#f9e65c" points="70,20.893 71.015,40.362 49.926,18.277"/><polygon fill="#f9e65c" points="29.963,20.893 28.948,40.362 50.037,18.277"/><polygon fill="none" stroke="#1f212b" stroke-linecap="round" stroke-linejoin="round" stroke-miterlimit="10" stroke-width="2" points="70,21 50,18 30,21 15,41 50,82 85,40.469"/><line x1="15" x2="85" y1="40.469" y2="40.469" fill="none" stroke="#1f212b" stroke-linecap="round" stroke-linejoin="round" stroke-miterlimit="10"/><polyline fill="none" stroke="#1f212b" stroke-linecap="round" stroke-linejoin="round" stroke-miterlimit="10" points="30,21 28.985,40.469 50.298,18.17"/><line x1="28.985" x2="50" y1="40.469" y2="82" fill="#eddc67" stroke="#1f212b" stroke-linecap="round" stroke-linejoin="round" stroke-miterlimit="10"/><polyline fill="none" stroke="#1f212b" stroke-linecap="round" stroke-linejoin="round" stroke-miterlimit="10" points="70,21 71.015,40.469 49.926,18.384"/><line x1="71.015" x2="50" y1="40.469" y2="82" fill="none" stroke="#1f212b" stroke-linecap="round" stroke-linejoin="round" stroke-miterlimit="10"/></svg>