<svg width="421" height="486" viewBox="0 0 421 486" fill="white" xmlns="http://www.w3.org/2000/svg">
<path d="M12.5 128.717L210.444 14.4338L408.388 128.717V357.283L210.444 471.566L12.5 357.283V128.717Z" stroke="#2D31FA" stroke-width="30"/>
<path d="M207.6 144.4C219.9 144.4 230.65 145.75 239.85 148.45C249.05 151.15 256.45 154 262.05 157C267.65 160 271.05 162 272.25 163L250.65 199.15C249.05 197.95 246.3 196.2 242.4 193.9C238.6 191.6 234.05 189.55 228.75 187.75C223.55 185.95 218.1 185.05 212.4 185.05C204.7 185.05 198.45 186.45 193.65 189.25C188.95 191.95 186.6 196 186.6 201.4C186.6 205.1 187.85 208.45 190.35 211.45C192.95 214.35 196.85 217.15 202.05 219.85C207.35 222.45 214.05 225.3 222.15 228.4C229.55 231.1 236.5 234.3 243 238C249.5 241.7 255.2 246.1 260.1 251.2C265.1 256.2 269.05 262 271.95 268.6C274.85 275.2 276.3 282.7 276.3 291.1C276.3 301.1 274.25 309.8 270.15 317.2C266.05 324.5 260.45 330.55 253.35 335.35C246.35 340.15 238.35 343.7 229.35 346C220.45 348.4 211.2 349.6 201.6 349.6C188 349.6 175.8 348.05 165 344.95C154.3 341.85 145.65 338.5 139.05 334.9C132.45 331.3 128.5 328.9 127.2 327.7L149.55 290.05C150.75 290.95 153.05 292.4 156.45 294.4C159.95 296.4 164.2 298.5 169.2 300.7C174.2 302.8 179.5 304.6 185.1 306.1C190.8 307.6 196.4 308.35 201.9 308.35C211.1 308.35 218 306.6 222.6 303.1C227.2 299.5 229.5 294.8 229.5 289C229.5 284.7 228.05 280.85 225.15 277.45C222.25 274.05 217.9 270.85 212.1 267.85C206.3 264.75 199.05 261.5 190.35 258.1C181.65 254.6 173.5 250.35 165.9 245.35C158.4 240.35 152.3 234.1 147.6 226.6C142.9 219.1 140.55 209.8 140.55 198.7C140.55 187.6 143.65 178 149.85 169.9C156.15 161.7 164.4 155.4 174.6 151C184.9 146.6 195.9 144.4 207.6 144.4Z" fill="#2D31FA"/>
</svg>
